<?xml version="1.0" standalone="no"?>
<!DOCTYPE svg PUBLIC "-//W3C//DTD SVG 20010904//EN"
 "http://www.w3.org/TR/2001/REC-SVG-20010904/DTD/svg10.dtd">
<svg version="1.0" xmlns="http://www.w3.org/2000/svg"
 width="512.000000pt" height="512.000000pt" viewBox="0 0 512.000000 512.000000"
 preserveAspectRatio="xMidYMid meet">
<metadata>
Created by potrace 1.11, written by Peter Selinger 2001-2013
</metadata>
<g transform="translate(0.000000,512.000000) scale(0.100000,-0.100000)"
fill="#000000" stroke="none">
<path d="M2164 5031 c-2 -2 -4 -36 -4 -75 l0 -71 162 0 163 0 0 -203 c0 -112
-2 -205 -5 -207 -3 -2 -35 -6 -70 -9 -36 -4 -83 -8 -105 -10 -144 -16 -344
-61 -470 -107 -44 -17 -84 -31 -90 -33 -53 -16 -231 -104 -340 -169 l-60 -35
-160 159 -160 159 -102 -103 c-57 -56 -103 -106 -103 -111 0 -5 66 -73 147
-152 81 -79 142 -144 137 -144 -15 0 -196 -186 -268 -276 -231 -289 -395 -666
-442 -1014 -3 -25 -9 -64 -14 -88 -8 -46 -5 -433 4 -492 67 -429 213 -768 469
-1085 58 -71 231 -246 297 -300 195 -158 395 -274 621 -360 121 -47 205 -70
349 -99 181 -36 215 -39 425 -40 216 -1 298 6 460 39 422 86 795 286 1101 590
184 183 287 319 399 529 95 179 180 424 210 606 3 19 7 46 10 60 14 74 17 122
20 295 2 120 -2 227 -10 290 -66 488 -271 903 -618 1253 l-102 102 147 143
147 143 -107 107 -107 107 -160 -160 -160 -159 -35 21 c-270 160 -571 275
-791 303 -23 3 -44 7 -48 9 -6 4 -111 15 -200 22 -30 2 -57 8 -60 13 -4 5 -6
99 -6 208 l0 198 160 0 160 0 0 75 0 75 -393 0 c-216 0 -395 -2 -398 -4z m606
-722 c115 -12 137 -16 244 -39 224 -49 480 -158 680 -290 60 -39 115 -77 121
-83 7 -7 30 -25 51 -42 61 -47 235 -223 297 -300 157 -198 270 -414 356 -677
14 -42 13 -41 41 -168 26 -124 35 -223 35 -400 0 -263 -34 -454 -122 -689
-102 -274 -250 -500 -467 -716 -227 -225 -487 -386 -786 -486 -118 -39 -271
-77 -350 -86 -25 -2 -70 -8 -100 -13 -30 -5 -140 -7 -245 -5 -186 4 -223 7
-281 19 -16 3 -45 8 -64 11 -19 3 -78 17 -130 30 -581 146 -1078 550 -1330
1079 -93 195 -128 304 -167 509 -22 119 -26 171 -27 327 -1 274 20 416 96 649
219 663 786 1172 1484 1330 87 20 117 25 234 40 77 10 340 10 430 0z"/>
<path d="M2434 4069 c-2 -5 -2 -37 0 -71 7 -80 18 -243 20 -287 l2 -34 104 0
104 -1 2 35 c2 48 14 212 20 290 4 50 2 68 -8 71 -22 9 -238 6 -244 -3z"/>
<path d="M1883 3947 c-56 -23 -106 -47 -111 -52 -10 -11 161 -368 171 -358 3
3 43 20 89 39 45 18 84 37 85 41 5 14 -112 366 -122 369 -6 2 -56 -16 -112
-39z"/>
<path d="M3111 3968 c-36 -95 -111 -352 -104 -357 13 -11 174 -73 178 -70 6 7
165 329 167 341 2 6 -13 20 -32 29 -34 18 -187 79 -196 79 -3 0 -8 -10 -13
-22z"/>
<path d="M1297 3564 c-48 -48 -87 -89 -86 -93 0 -3 24 -26 52 -50 29 -24 88
-76 131 -115 119 -107 102 -105 185 -25 l73 70 -74 87 c-40 48 -75 89 -78 92
-3 3 -27 31 -53 63 -27 31 -52 57 -56 57 -4 0 -46 -39 -94 -86z"/>
<path d="M3648 3563 c-40 -48 -89 -105 -108 -127 -81 -95 -82 -76 1 -155 l72
-71 61 52 c34 29 71 61 83 73 11 11 50 45 86 75 36 30 66 58 66 61 1 9 -171
179 -180 179 -4 0 -41 -39 -81 -87z"/>
<path d="M3970 3326 c-40 -27 -219 -143 -395 -256 -66 -42 -160 -103 -210
-136 -49 -32 -98 -63 -107 -69 -20 -11 -302 -193 -513 -330 -77 -50 -164 -106
-192 -125 -29 -18 -53 -38 -53 -43 0 -6 29 -54 65 -108 l65 -98 57 38 c32 21
263 170 513 331 250 161 489 315 530 342 l74 49 17 -33 c10 -18 27 -58 39 -88
l21 -56 188 64 189 64 -8 26 c-12 42 -69 177 -83 197 -12 16 -22 12 -130 -44
-64 -34 -117 -60 -117 -58 0 2 49 35 110 73 60 38 110 73 110 77 0 8 -127 207
-132 207 -2 0 -19 -11 -38 -24z"/>
<path d="M941 3072 c-29 -56 -83 -194 -78 -198 11 -11 362 -124 372 -120 7 2
15 16 19 31 4 15 18 50 31 78 14 28 25 56 25 61 0 9 -298 169 -340 184 -5 2
-18 -15 -29 -36z"/>
<path d="M774 2435 c-3 -6 -3 -65 -2 -131 l3 -119 25 1 c46 3 225 17 250 19
14 2 46 3 73 4 l47 1 0 105 0 105 -42 1 c-24 1 -54 2 -68 3 -14 2 -70 6 -125
10 -55 4 -113 9 -129 10 -15 1 -30 -3 -32 -9z"/>
<path d="M4297 2444 c-2 -2 -57 -6 -249 -20 l-98 -7 0 -103 0 -104 48 -1 c26
-1 58 -2 72 -4 14 -1 77 -6 140 -10 63 -4 120 -8 125 -9 6 -1 10 48 10 128 0
127 0 129 -23 131 -12 1 -23 1 -25 -1z"/>
<path d="M1051 1824 c-101 -35 -185 -65 -188 -67 -5 -5 49 -141 78 -199 11
-21 24 -38 28 -36 5 2 83 41 175 88 160 82 181 99 157 126 -4 5 -21 42 -36 82
-16 39 -29 71 -29 71 -1 -1 -84 -30 -185 -65z"/>
<path d="M3855 1820 c-14 -36 -32 -77 -38 -92 -6 -15 -9 -29 -7 -31 28 -23
346 -175 352 -169 9 9 80 170 92 208 6 20 -6 26 -183 85 l-189 64 -27 -65z"/>
<path d="M1482 1400 c-12 -10 -53 -45 -90 -78 -37 -34 -76 -69 -88 -79 -12
-10 -38 -33 -59 -51 l-37 -33 23 -27 c33 -36 138 -135 154 -144 9 -5 28 9 57
43 23 29 48 57 53 63 6 6 43 50 83 98 l73 87 -72 70 c-39 39 -72 71 -73 71 0
-1 -11 -9 -24 -20z"/>
<path d="M3537 1348 l-69 -69 124 -147 c69 -81 129 -147 135 -147 12 0 94 73
147 132 l38 43 -29 24 c-15 13 -40 34 -54 47 -117 108 -214 190 -221 188 -1
-1 -34 -33 -71 -71z"/>
<path d="M3178 1094 c-3 -2 -42 -20 -87 -38 -45 -18 -84 -36 -87 -39 -6 -6
103 -356 115 -369 8 -9 200 61 239 87 1 1 -37 84 -86 183 -49 100 -91 179 -94
176z"/>
<path d="M1846 914 c-48 -97 -86 -177 -84 -179 13 -10 204 -86 221 -88 18 -2
27 18 79 178 32 99 57 184 55 188 -2 7 -163 76 -178 77 -3 0 -45 -79 -93 -176z"/>
<path d="M2459 945 c0 -5 -2 -17 -4 -26 -4 -22 -18 -253 -19 -314 l-1 -50 128
-1 129 -2 -6 82 c-3 44 -9 124 -12 176 -4 52 -8 102 -10 110 -1 8 -3 20 -3 25
-1 6 -42 10 -101 10 -59 0 -100 -4 -101 -10z"/>
</g>
</svg>
