<?xml version="1.0" standalone="no"?>
<!DOCTYPE svg PUBLIC "-//W3C//DTD SVG 20010904//EN"
 "http://www.w3.org/TR/2001/REC-SVG-20010904/DTD/svg10.dtd">
<svg version="1.0" xmlns="http://www.w3.org/2000/svg"
 width="512.000000pt" height="512.000000pt" viewBox="0 0 512.000000 512.000000"
 preserveAspectRatio="xMidYMid meet">
<metadata>
Created by potrace 1.11, written by Peter Selinger 2001-2013
</metadata>
<g transform="translate(0.000000,512.000000) scale(0.100000,-0.100000)"
fill="#000000" stroke="none">
<path d="M2160 4960 l0 -80 160 0 160 0 0 -205 0 -205 -52 0 c-81 0 -305 -36
-431 -69 -197 -51 -396 -135 -580 -243 l-67 -40 -160 156 c-89 86 -164 156
-168 156 -4 0 -54 -47 -112 -105 l-105 -105 147 -148 147 -147 -61 -55 c-156
-138 -343 -392 -448 -605 -150 -304 -220 -606 -220 -950 0 -197 19 -350 64
-528 199 -770 801 -1365 1581 -1562 333 -84 727 -88 1055 -9 296 70 602 214
834 393 389 298 665 714 782 1178 46 182 64 332 64 528 0 432 -118 825 -355
1180 -89 134 -208 278 -302 365 l-71 65 147 147 146 148 -105 105 c-58 58
-108 105 -112 105 -4 0 -79 -70 -167 -155 l-159 -156 -104 60 c-182 105 -387
186 -593 234 -117 28 -317 57 -391 57 l-44 0 0 205 0 205 160 0 160 0 0 80 0
80 -400 0 -400 0 0 -80z m544 -650 c491 -36 930 -231 1280 -570 329 -319 523
-695 591 -1145 22 -144 22 -412 1 -560 -73 -498 -336 -954 -737 -1275 -721
-577 -1763 -593 -2509 -39 -104 77 -281 247 -363 349 -225 279 -368 604 -422
965 -22 144 -22 412 -1 560 51 349 200 687 424 966 71 88 253 266 337 330 310
237 711 391 1089 418 161 12 158 12 310 1z"/>
<path d="M2430 4043 c0 -21 5 -113 11 -205 l12 -168 107 0 107 0 12 168 c6 92
11 184 11 205 l0 37 -130 0 -130 0 0 -37z"/>
<path d="M1880 3949 c-52 -22 -101 -43 -107 -46 -7 -3 -13 -9 -13 -14 0 -21
176 -359 185 -355 5 3 48 21 95 40 47 20 84 39 84 43 -1 5 -28 90 -60 191 -43
135 -62 182 -73 182 -9 0 -59 -19 -111 -41z"/>
<path d="M3055 3808 c-32 -101 -58 -187 -59 -191 -1 -4 37 -24 84 -43 47 -19
90 -37 95 -40 15 -6 192 353 180 365 -13 13 -208 91 -227 91 -10 0 -32 -56
-73 -182z"/>
<path d="M1301 3575 c-50 -48 -91 -93 -91 -99 0 -14 282 -266 297 -266 5 0 39
31 77 69 47 47 66 73 60 82 -8 14 -203 248 -234 282 -17 18 -21 15 -109 -68z"/>
<path d="M3597 3510 c-70 -83 -127 -153 -127 -158 0 -10 133 -142 144 -142 13
0 296 253 296 265 0 10 -134 146 -171 173 -13 10 -35 -10 -142 -138z"/>
<path d="M3385 2949 c-341 -220 -682 -440 -757 -489 l-138 -89 66 -103 c37
-57 68 -104 69 -106 2 -2 263 165 581 370 319 206 584 377 590 381 10 6 39
-51 73 -145 l10 -27 187 63 c103 34 189 67 192 74 5 17 -88 232 -101 232 -6 0
-51 -20 -99 -45 -48 -25 -88 -44 -88 -42 0 2 38 28 85 58 47 29 85 58 85 63 0
11 -123 205 -130 206 -3 0 -284 -180 -625 -401z"/>
<path d="M910 3015 c-66 -152 -76 -136 139 -211 101 -35 186 -62 189 -60 5 6
72 156 78 176 3 11 -43 39 -168 103 -95 48 -178 88 -184 87 -7 0 -31 -43 -54
-95z"/>
<path d="M765 2381 c-8 -83 3 -201 19 -201 6 0 92 7 191 15 99 8 185 15 190
15 9 0 11 197 2 206 -3 4 -340 33 -383 34 -7 0 -15 -28 -19 -69z"/>
<path d="M4135 2435 c-82 -7 -159 -14 -170 -14 -19 -1 -20 -7 -18 -102 1 -56
4 -103 6 -105 3 -3 353 -34 388 -34 12 0 21 131 14 201 l-7 69 -32 -1 c-17 -1
-98 -7 -181 -14z"/>
<path d="M1046 1825 c-99 -34 -182 -67 -184 -73 -5 -17 88 -232 101 -232 21 0
352 176 350 186 -6 27 -73 179 -80 180 -4 0 -89 -27 -187 -61z"/>
<path d="M3869 1863 c-5 -16 -24 -58 -41 -96 -17 -37 -29 -69 -27 -71 16 -12
344 -176 354 -176 21 0 115 225 99 239 -8 7 -358 131 -370 131 -2 0 -9 -12
-15 -27z"/>
<path d="M1355 1295 c-77 -68 -141 -130 -143 -138 -2 -8 38 -53 89 -101 75
-72 94 -85 104 -74 44 46 245 289 245 296 0 11 -134 142 -145 142 -6 -1 -73
-57 -150 -125z"/>
<path d="M3536 1351 c-47 -48 -66 -73 -60 -82 4 -8 62 -78 128 -156 137 -164
109 -160 234 -39 39 39 72 75 72 82 0 12 -283 264 -297 264 -5 0 -39 -31 -77
-69z"/>
<path d="M1845 920 c-56 -112 -86 -183 -80 -188 15 -14 178 -81 211 -88 l30
-6 58 184 c33 101 59 187 60 191 1 5 -154 76 -189 87 0 0 -41 -81 -90 -180z"/>
<path d="M3167 1094 c-3 -4 -43 -22 -89 -40 -46 -19 -82 -37 -82 -41 1 -5 28
-91 60 -191 58 -183 58 -184 85 -178 28 5 206 80 217 91 7 6 -169 365 -179
365 -3 0 -8 -3 -12 -6z"/>
<path d="M2441 793 c-6 -93 -11 -185 -11 -205 l0 -38 130 0 130 0 0 38 c0 20
-5 112 -11 205 l-12 167 -107 0 -107 0 -12 -167z"/>
</g>
</svg>
